<svg xmlns="http://www.w3.org/2000/svg" xmlns:xlink="http://www.w3.org/1999/xlink" version="1.1" width="256" height="256" viewBox="0 0 256 256" xml:space="preserve">
<desc>Created with Fabric.js 1.7.22</desc>
<defs>
</defs>
<g transform="translate(128 128) scale(0.72 0.72)" style="">
	<g style="stroke: none; stroke-width: 0; stroke-dasharray: none; stroke-linecap: butt; stroke-linejoin: miter; stroke-miterlimit: 10; fill: none; fill-rule: nonzero; opacity: 1;" transform="translate(-175.05 -175.05000000000004) scale(3.89 3.89)" >
	<path d="M 47 88 V 2 c 0 -1.104 -0.896 -2 -2 -2 s -2 0.896 -2 2 v 86 c 0 1.104 0.896 2 2 2 S 47 89.105 47 88 z" style="stroke: none; stroke-width: 1; stroke-dasharray: none; stroke-linecap: butt; stroke-linejoin: miter; stroke-miterlimit: 10; fill: rgb(0,0,0); fill-rule: nonzero; opacity: 1;" transform=" matrix(1 0 0 1 0 0) " stroke-linecap="round" />
	<path d="M 60.627 74.373 c 0 -0.512 -0.195 -1.023 -0.586 -1.414 c -0.781 -0.781 -2.047 -0.781 -2.828 0 L 45 85.172 L 32.787 72.959 c -0.781 -0.781 -2.047 -0.781 -2.828 0 c -0.781 0.781 -0.781 2.047 0 2.828 l 13.626 13.627 C 43.961 89.789 44.469 90 45 90 s 1.039 -0.211 1.414 -0.586 l 13.627 -13.627 C 60.431 75.397 60.627 74.885 60.627 74.373 z" style="stroke: none; stroke-width: 1; stroke-dasharray: none; stroke-linecap: butt; stroke-linejoin: miter; stroke-miterlimit: 10; fill: rgb(0,0,0); fill-rule: nonzero; opacity: 1;" transform=" matrix(1 0 0 1 0 0) " stroke-linecap="round" />
</g>
</g>
</svg>